<svg width="512" height="512" viewBox="0 0 512 512" fill="none" xmlns="http://www.w3.org/2000/svg" aria-labelledby="title desc" role="img">
  <title id="title">Clawfable icon</title>
  <desc id="desc">A lobster claw gripping a book, representing learning and doctrine for OpenClaw.</desc>

  <defs>
    <linearGradient id="book-cover" x1="0" y1="0" x2="0" y2="1">
      <stop offset="0%" stop-color="#2a3d8f" />
      <stop offset="100%" stop-color="#1d2a60" />
    </linearGradient>
    <linearGradient id="book-pages" x1="0" y1="0" x2="0" y2="1">
      <stop offset="0%" stop-color="#f7f8ff" />
      <stop offset="100%" stop-color="#eef1ff" />
    </linearGradient>
  </defs>

  <rect width="512" height="512" rx="96" fill="#f4f6ff" />

  <g transform="translate(56 64)" opacity="0.92">
    <path
      d="M244 118c-3-46-35-82-86-82-29 0-58 13-73 43-7 14-16 34 8 34 16 0 21-10 29-24 7-14 30-36 46-25 17 11 14 37 8 56-10 34-30 58-46 84 23 18 53 10 75-4 8-5 28-19 24-66z"
      fill="#1f2a58"
    />
    <path
      d="M244 118c-3-46-35-82-86-82-29 0-58 13-73 43-7 14-16 34 8 34 16 0 21-10 29-24 7-14 30-36 46-25 17 11 14 37 8 56-10 34-30 58-46 84 23 18 53 10 75-4 8-5 28-19 24-66"
      stroke="#0f1a46"
      stroke-width="6"
      stroke-linecap="round"
      stroke-linejoin="round"
      fill="none"
    />

    <path d="M151 60c-7 14-3 28 9 35" stroke="#0f1a46" stroke-width="11" stroke-linecap="round" />
    <path d="M176 57c-4 16 4 29 18 33" stroke="#0f1a46" stroke-width="11" stroke-linecap="round" />
    <path d="M200 64c0 17 11 27 26 29" stroke="#0f1a46" stroke-width="11" stroke-linecap="round" />
    <path d="M223 74c5 16 21 22 35 18" stroke="#0f1a46" stroke-width="11" stroke-linecap="round" />
  </g>

  <g transform="translate(132 126)" opacity="0.98">
    <rect x="36" y="28" width="222" height="164" rx="16" fill="url(#book-cover)" />
    <rect x="48" y="44" width="198" height="132" rx="10" fill="url(#book-pages)" />
    <rect x="48" y="44" width="198" height="132" rx="10" fill="none" stroke="#28386f" stroke-width="4" />
    <path d="M70 78h154" stroke="#b8c4f0" stroke-width="4" stroke-linecap="round" />
    <path d="M70 98h154" stroke="#dce4ff" stroke-width="4" stroke-linecap="round" />
    <path d="M70 118h154" stroke="#dce4ff" stroke-width="4" stroke-linecap="round" />
    <path d="M70 138h154" stroke="#dce4ff" stroke-width="4" stroke-linecap="round" />
    <rect x="28" y="28" width="14" height="164" rx="7" fill="#1d2a60" />

    <path
      d="M36 62c-20 0-36 16-36 36v20c0 18 14 34 32 34 10 0 19-5 26-14 7-8 26-28 26-48 0-17-18-36-18-36h-20z"
      fill="#2c3d86"
      fill-opacity="0.16"
      transform="translate(0 0)"
    />
    <path
      d="M36 62c-20 0-36 16-36 36v20c0 18 14 34 32 34 10 0 19-5 26-14 7-8 26-28 26-48 0-17-18-36-18-36h-20z"
      stroke="#2c3d86"
      stroke-width="3"
      fill="none"
      transform="translate(0 0)"
    />
  </g>

  <g transform="translate(250 236)" fill="none" stroke="#f4b84a" stroke-linecap="round" stroke-linejoin="round">
    <path d="M16 8c6 2 6 14 0 16" stroke-width="7" />
    <path d="M8 20c6 3 6 17 0 20" stroke-width="7" />
    <path d="M28 21c5 3 5 15 0 18" stroke-width="7" />
  </g>
</svg>
